<?xml version="1.0" encoding="utf-8"?>
<!-- Generator: Adobe Illustrator 24.0.1, SVG Export Plug-In . SVG Version: 6.00 Build 0)  -->
<svg version="1.1" id="Layer_1" xmlns="http://www.w3.org/2000/svg" xmlns:xlink="http://www.w3.org/1999/xlink" x="0px" y="0px"
	 viewBox="0 0 60 42" style="enable-background:new 0 0 60 42;" xml:space="preserve">
<path d="M54,4H16l-1.4-2.9c-0.3-0.7-1-1.1-1.8-1.1H4C2.9,0,2,0.9,2,2v6h54V6C56,4.9,55.1,4,54,4z M13,5H4V3h9V5z M28,16
	c3.9,0,7,3.1,7,7s-3.1,7-7,7s-7-3.1-7-7S24.1,16,28,16z M58,10H2c-1.1,0-2,0.9-2,2v28c0,1.1,0.9,2,2,2h56c1.1,0,2-0.9,2-2V12
	C60,10.9,59.1,10,58,10z M40,36.4L33.6,30c-1.5,1.2-3.5,2-5.6,2c-5,0-9-4-9-9s4-9,9-9s9,4,9,9c0,2.1-0.7,4.1-2,5.6l6.4,6.4L40,36.4z
	"/>
</svg>
