<?xml version="1.0" encoding="utf-8"?>
<!-- Generator: Adobe Illustrator 21.1.0, SVG Export Plug-In . SVG Version: 6.00 Build 0)  -->
<svg version="1.1" id="Layer_1" xmlns="http://www.w3.org/2000/svg" xmlns:xlink="http://www.w3.org/1999/xlink" x="0px" y="0px"
	 viewBox="0 0 62 62" style="enable-background:new 0 0 62 62;" xml:space="preserve">
<g>
	<path d="M59,4h-9V0H12.6L0,12.6V62h50V24h9c1.7,0,3-1.3,3-3V7C62,5.3,60.7,4,59,4z M12,3.4V12H3.4L12,3.4z M48,60H2V14h12V2h34v2
		H23c-1.7,0-3,1.3-3,3v14c0,1.7,1.3,3,3,3h25V60z M60,21c0,0.6-0.4,1-1,1H23c-0.6,0-1-0.4-1-1V7c0-0.6,0.4-1,1-1h36c0.6,0,1,0.4,1,1
		V21z"/>
	<rect x="4" y="16" width="2" height="2"/>
	<rect x="8" y="16" width="2" height="2"/>
	<rect x="4" y="20" width="2" height="2"/>
	<path d="M29,10c1.7,0,3,1.3,3,3h2c0-2.8-2.2-5-5-5s-5,2.2-5,5v2c0,2.8,2.2,5,5,5s5-2.2,5-5h-2c0,1.7-1.3,3-3,3s-3-1.3-3-3v-2
		C26,11.3,27.3,10,29,10z"/>
	<path d="M42.5,8h-3C37.6,8,36,9.6,36,11.5s1.6,3.5,3.5,3.5h3c0.8,0,1.5,0.7,1.5,1.5S43.3,18,42.5,18h-3c-0.8,0-1.5-0.7-1.5-1.5V16
		h-2v0.5c0,1.9,1.6,3.5,3.5,3.5h3c1.9,0,3.5-1.6,3.5-3.5S44.4,13,42.5,13h-3c-0.8,0-1.5-0.7-1.5-1.5s0.7-1.5,1.5-1.5h3
		c0.8,0,1.5,0.7,1.5,1.5V12h2v-0.5C46,9.6,44.4,8,42.5,8z"/>
	<path d="M54.5,8h-3C49.6,8,48,9.6,48,11.5s1.6,3.5,3.5,3.5h3c0.8,0,1.5,0.7,1.5,1.5S55.3,18,54.5,18h-3c-0.8,0-1.5-0.7-1.5-1.5V16
		h-2v0.5c0,1.9,1.6,3.5,3.5,3.5h3c1.9,0,3.5-1.6,3.5-3.5S56.4,13,54.5,13h-3c-0.8,0-1.5-0.7-1.5-1.5s0.7-1.5,1.5-1.5h3
		c0.8,0,1.5,0.7,1.5,1.5V12h2v-0.5C58,9.6,56.4,8,54.5,8z"/>
	<path d="M4,58h42V26H4V58z M6,28h38v28H6V28z"/>
	<path d="M14.5,34.8l-0.3,2.3c-0.1,0.9-0.5,1.8-1.2,2.5L10.6,42l2.4,2.4c0.7,0.7,1.1,1.5,1.2,2.5l0.3,2.3c0.3,2.8,2.7,4.8,5.5,4.8
		v-2c-1.8,0-3.3-1.3-3.5-3.1l-0.3-2.3C16,45.3,15.4,44,14.4,43l-1-1l1-1c1-1,1.6-2.3,1.8-3.6l0.3-2.3c0.2-1.8,1.7-3.1,3.5-3.1v-2
		C17.2,30,14.9,32.1,14.5,34.8z"/>
	<path d="M35.8,37.1l-0.3-2.3C35.1,32.1,32.8,30,30,30v2c1.8,0,3.3,1.3,3.5,3.1l0.3,2.3c0.2,1.4,0.8,2.7,1.8,3.6l1,1l-1,1
		c-1,1-1.6,2.3-1.8,3.6l-0.3,2.3C33.3,50.7,31.8,52,30,52v2c2.8,0,5.1-2.1,5.5-4.8l0.3-2.3c0.1-0.9,0.5-1.8,1.2-2.5l2.4-2.4L37,39.6
		C36.3,38.9,35.9,38,35.8,37.1z"/>
</g>
</svg>
