<?xml version="1.0" encoding="utf-8"?>
<!-- Generator: Adobe Illustrator 21.1.0, SVG Export Plug-In . SVG Version: 6.00 Build 0)  -->
<svg version="1.1" id="Layer_1" xmlns="http://www.w3.org/2000/svg" xmlns:xlink="http://www.w3.org/1999/xlink" x="0px" y="0px"
	 viewBox="0 0 62 62" style="enable-background:new 0 0 62 62;" xml:space="preserve">
<g>
	<path d="M59,4h-9V0H12.6L0,12.6V62h50V24h9c1.7,0,3-1.3,3-3V7C62,5.3,60.7,4,59,4z M12,3.4V12H3.4L12,3.4z M48,60H2V14h12V2h34v2
		H23c-1.7,0-3,1.3-3,3v14c0,1.7,1.3,3,3,3h25V60z M60,21c0,0.6-0.4,1-1,1H23c-0.6,0-1-0.4-1-1V7c0-0.6,0.4-1,1-1h36c0.6,0,1,0.4,1,1
		V21z"/>
	<rect x="4" y="16" width="2" height="2"/>
	<rect x="8" y="16" width="2" height="2"/>
	<rect x="4" y="20" width="2" height="2"/>
	<path d="M29,8c-2.8,0-5,2.2-5,5v7h2v-3h6v3h2v-7C34,10.2,31.8,8,29,8z M26,15v-2c0-1.7,1.3-3,3-3s3,1.3,3,3v2H26z"/>
	<polygon points="44,11.8 41.3,18 40.7,18 38,11.8 38,8 36,8 36,12.2 39.3,20 42.7,20 46,12.2 46,8 44,8 	"/>
	<polygon points="48,10 52,10 52,18 48,18 48,20 58,20 58,18 54,18 54,10 58,10 58,8 48,8 	"/>
	<path d="M9,42c0,8.8,7.2,16,16,16h13v-2h-5.3c4.9-2.7,8.3-8,8.3-14c0-8.8-7.2-16-16-16S9,33.2,9,42z M25,28c7.7,0,14,6.3,14,14
		s-6.3,14-14,14s-14-6.3-14-14S17.3,28,25,28z"/>
	<path d="M25,38c2.2,0,4-1.8,4-4s-1.8-4-4-4s-4,1.8-4,4S22.8,38,25,38z M25,32c1.1,0,2,0.9,2,2s-0.9,2-2,2s-2-0.9-2-2S23.9,32,25,32
		z"/>
	<path d="M13.8,41.3c0.5,1,1.3,1.7,2.3,2c0.4,0.1,0.8,0.2,1.2,0.2c1.7,0,3.3-1.1,3.8-2.8c0.3-1,0.2-2.1-0.2-3.1
		c-0.5-1-1.3-1.7-2.3-2c-2.1-0.7-4.4,0.5-5,2.6C13.3,39.3,13.3,40.4,13.8,41.3z M15.5,38.9c0.3-0.8,1.1-1.4,1.9-1.4
		c0.2,0,0.4,0,0.6,0.1h0c0.5,0.2,0.9,0.5,1.2,1c0.2,0.5,0.3,1,0.1,1.5c-0.3,1-1.5,1.6-2.5,1.3c-0.5-0.2-0.9-0.5-1.2-1
		C15.4,40,15.3,39.4,15.5,38.9z"/>
	<path d="M22.6,45.2c-1.8-1.3-4.3-0.9-5.6,0.9c-0.6,0.9-0.9,1.9-0.7,3c0.2,1.1,0.7,2,1.6,2.6c0.7,0.5,1.5,0.8,2.3,0.8
		c1.2,0,2.5-0.6,3.2-1.6C24.8,49,24.4,46.5,22.6,45.2z M21.9,49.6c-0.6,0.9-1.9,1.1-2.8,0.4c-0.4-0.3-0.7-0.8-0.8-1.3
		c-0.1-0.5,0-1.1,0.4-1.5h0c0.4-0.5,1-0.8,1.6-0.8c0.4,0,0.8,0.1,1.2,0.4C22.4,47.5,22.6,48.8,21.9,49.6z"/>
	<path d="M27.4,45.2c-1.8,1.3-2.2,3.8-0.9,5.6c0.8,1.1,2,1.6,3.2,1.6c0.8,0,1.6-0.2,2.3-0.8c0.9-0.6,1.4-1.6,1.6-2.6
		c0.2-1.1-0.1-2.1-0.7-3C31.6,44.3,29.1,43.9,27.4,45.2z M31.7,48.8c-0.1,0.5-0.4,1-0.8,1.3c-0.9,0.6-2.1,0.5-2.8-0.4
		c-0.6-0.9-0.4-2.1,0.4-2.8c0.4-0.3,0.8-0.4,1.2-0.4c0.6,0,1.2,0.3,1.6,0.8C31.6,47.7,31.8,48.3,31.7,48.8z"/>
	<path d="M28.8,40.8c0.5,1.7,2.1,2.8,3.8,2.8c0.4,0,0.8-0.1,1.2-0.2c1-0.3,1.8-1,2.3-2c0.5-1,0.6-2,0.2-3.1c-0.7-2.1-2.9-3.2-5-2.6
		c-1,0.3-1.8,1-2.3,2C28.6,38.7,28.5,39.7,28.8,40.8z M30.8,38.6c0.2-0.5,0.7-0.8,1.2-1c0.2-0.1,0.4-0.1,0.6-0.1
		c0.8,0,1.6,0.5,1.9,1.4c0.2,0.5,0.1,1.1-0.1,1.5s-0.7,0.8-1.2,1h0c-1,0.3-2.2-0.2-2.5-1.3C30.5,39.6,30.6,39.1,30.8,38.6z"/>
	<circle cx="25" cy="42" r="1"/>
	<rect x="44" y="56" width="2" height="2"/>
	<rect x="40" y="56" width="2" height="2"/>
</g>
</svg>
