<?xml version="1.0" encoding="utf-8"?>
<!-- Generator: Adobe Illustrator 21.1.0, SVG Export Plug-In . SVG Version: 6.00 Build 0)  -->
<svg version="1.1" id="Layer_1" xmlns="http://www.w3.org/2000/svg" xmlns:xlink="http://www.w3.org/1999/xlink" x="0px" y="0px"
	 viewBox="0 0 62 62" style="enable-background:new 0 0 62 62;" xml:space="preserve">
<g>
	<path d="M59,4h-9V0H12.6L0,12.6V62h50V24h9c1.7,0,3-1.3,3-3V7C62,5.3,60.7,4,59,4z M12,3.4V12H3.4L12,3.4z M48,60H2V14h12V2h34v2
		H23c-1.7,0-3,1.3-3,3v14c0,1.7,1.3,3,3,3h25V60z M60,21c0,0.6-0.4,1-1,1H23c-0.6,0-1-0.4-1-1V7c0-0.6,0.4-1,1-1h36c0.6,0,1,0.4,1,1
		V21z"/>
	<path d="M42.5,8H36v6v1v5h2v-5h4.5c1.9,0,3.5-1.6,3.5-3.5S44.4,8,42.5,8z M42.5,13H38v-3h4.5c0.8,0,1.5,0.7,1.5,1.5
		S43.3,13,42.5,13z"/>
	<rect x="4" y="16" width="2" height="2"/>
	<rect x="8" y="16" width="2" height="2"/>
	<rect x="4" y="20" width="2" height="2"/>
	<polygon points="24,20 34,20 34,18 26,18 26,15 32,15 32,13 26,13 26,10 34,10 34,8 24,8 	"/>
	<path d="M54.5,8h-3C49.6,8,48,9.6,48,11.5s1.6,3.5,3.5,3.5h3c0.8,0,1.5,0.7,1.5,1.5S55.3,18,54.5,18h-3c-0.8,0-1.5-0.7-1.5-1.5V16
		h-2v0.5c0,1.9,1.6,3.5,3.5,3.5h3c1.9,0,3.5-1.6,3.5-3.5S56.4,13,54.5,13h-3c-0.8,0-1.5-0.7-1.5-1.5s0.7-1.5,1.5-1.5h3
		c0.8,0,1.5,0.7,1.5,1.5V12h2v-0.5C58,9.6,56.4,8,54.5,8z"/>
	<path d="M9.8,28c-0.4-1.2-1.5-2-2.8-2c-1.7,0-3,1.3-3,3s1.3,3,3,3c1.3,0,2.4-0.8,2.8-2H17c-5.1,2.7-8.7,8-9,14.2
		c-1.2,0.4-2,1.5-2,2.8c0,1.7,1.3,3,3,3s3-1.3,3-3c0-1.3-0.8-2.4-2-2.8c0.4-7.8,6.8-14,14.6-14.2l-8.8,6.6l2.1,8.5V58h14V45.1
		l2.1-8.5L25.4,30c7.8,0.2,14.2,6.4,14.6,14.2c-1.1,0.4-2,1.5-2,2.8c0,1.7,1.3,3,3,3s3-1.3,3-3c0-1.3-0.9-2.4-2-2.8
		C41.7,38,38.1,32.7,33,30h7.2c0.4,1.2,1.5,2,2.8,2c1.7,0,3-1.3,3-3s-1.3-3-3-3c-1.3,0-2.4,0.8-2.8,2H9.8z M7,30c-0.6,0-1-0.4-1-1
		s0.4-1,1-1s1,0.4,1,1S7.6,30,7,30z M9,48c-0.6,0-1-0.4-1-1s0.4-1,1-1s1,0.4,1,1S9.6,48,9,48z M41,48c-0.6,0-1-0.4-1-1s0.4-1,1-1
		s1,0.4,1,1S41.6,48,41,48z M43,28c0.6,0,1,0.4,1,1s-0.4,1-1,1s-1-0.4-1-1S42.4,28,43,28z M26,39c0,0.6-0.4,1-1,1s-1-0.4-1-1
		s0.4-1,1-1S26,38.4,26,39z M20,56v-2h6v-2h-6v-6h10v6h-2v2h2v2H20z M30.2,44H19.8l-1.6-6.6L24,33v3.2c-1.2,0.4-2,1.5-2,2.8
		c0,1.7,1.3,3,3,3s3-1.3,3-3c0-1.3-0.8-2.4-2-2.8V33l5.9,4.4L30.2,44z"/>
</g>
</svg>
