<?xml version="1.0" encoding="utf-8"?>
<!-- Generator: Adobe Illustrator 21.1.0, SVG Export Plug-In . SVG Version: 6.00 Build 0)  -->
<svg version="1.1" id="Layer_1" xmlns="http://www.w3.org/2000/svg" xmlns:xlink="http://www.w3.org/1999/xlink" x="0px" y="0px"
	 viewBox="0 0 62 62" style="enable-background:new 0 0 62 62;" xml:space="preserve">
<g>
	<path d="M59,4h-9V0H12.6L0,12.6V62h50V24h9c1.7,0,3-1.3,3-3V7C62,5.3,60.7,4,59,4z M12,3.4V12H3.4L12,3.4z M48,60H2V14h12V2h34v2
		H23c-1.7,0-3,1.3-3,3v14c0,1.7,1.3,3,3,3h25V60z M60,21c0,0.6-0.4,1-1,1H23c-0.6,0-1-0.4-1-1V7c0-0.6,0.4-1,1-1h36c0.6,0,1,0.4,1,1
		V21z"/>
	<path d="M37,45h9v-6h-9c-1.7,0-3,1.3-3,3S35.3,45,37,45z M37,41h7v2h-7c-0.6,0-1-0.4-1-1S36.4,41,37,41z"/>
	<rect x="4" y="16" width="2" height="2"/>
	<rect x="8" y="16" width="2" height="2"/>
	<rect x="4" y="20" width="2" height="2"/>
	<polygon points="24,10 32,10 32,10.5 24,16.5 24,20 34,20 34,18 26,18 26,17.5 34,11.5 34,8 24,8 	"/>
	<polygon points="36,10 40,10 40,18 36,18 36,20 46,20 46,18 42,18 42,10 46,10 46,8 36,8 	"/>
	<path d="M54.5,8H48v6v1v5h2v-5h4.5c1.9,0,3.5-1.6,3.5-3.5S56.4,8,54.5,8z M54.5,13H50v-3h4.5c0.8,0,1.5,0.7,1.5,1.5
		S55.3,13,54.5,13z"/>
	<rect x="32" y="34" width="2" height="7"/>
	<rect x="30" y="41" width="2" height="7"/>
	<rect x="28" y="34" width="2" height="7"/>
	<rect x="26" y="41" width="2" height="7"/>
	<rect x="24" y="34" width="2" height="7"/>
	<rect x="22" y="41" width="2" height="7"/>
	<rect x="20" y="34" width="2" height="7"/>
	<rect x="18" y="41" width="2" height="7"/>
	<rect x="16" y="34" width="2" height="7"/>
	<rect x="14" y="41" width="2" height="7"/>
	<rect x="12" y="34" width="2" height="7"/>
	<rect x="10" y="41" width="2" height="7"/>
	<rect x="8" y="34" width="2" height="7"/>
	<rect x="6" y="41" width="2" height="7"/>
	<rect x="4" y="34" width="2" height="7"/>
</g>
</svg>
