<?xml version="1.0" encoding="utf-8"?>
<!-- Generator: Adobe Illustrator 21.1.0, SVG Export Plug-In . SVG Version: 6.00 Build 0)  -->
<svg version="1.1" id="Layer_1" xmlns="http://www.w3.org/2000/svg" xmlns:xlink="http://www.w3.org/1999/xlink" x="0px" y="0px"
	 viewBox="0 0 62 62" style="enable-background:new 0 0 62 62;" xml:space="preserve">
<g>
	<path d="M59,4h-9V0H12.6L0,12.6V62h50V24h9c1.7,0,3-1.3,3-3V7C62,5.3,60.7,4,59,4z M12,3.4V12H3.4L12,3.4z M48,60H2V14h12V2h34v2
		H23c-1.7,0-3,1.3-3,3v14c0,1.7,1.3,3,3,3h25V60z M60,21c0,0.6-0.4,1-1,1H23c-0.6,0-1-0.4-1-1V7c0-0.6,0.4-1,1-1h36c0.6,0,1,0.4,1,1
		V21z"/>
	<path d="M42.5,8H36v6v1v5h2v-5h4.5c1.9,0,3.5-1.6,3.5-3.5S44.4,8,42.5,8z M42.5,13H38v-3h4.5c0.8,0,1.5,0.7,1.5,1.5
		S43.3,13,42.5,13z"/>
	<rect x="4" y="16" width="2" height="2"/>
	<rect x="8" y="16" width="2" height="2"/>
	<rect x="4" y="20" width="2" height="2"/>
	<polygon points="29,11.3 26.5,8 24,8 24,20 26,20 26,10.7 29,14.7 32,10.7 32,20 34,20 34,8 31.5,8 	"/>
	<polygon points="55,11 53,11 53,14 50,14 50,8 48,8 48,16 53,16 53,20 55,20 55,16 58,16 58,14 55,14 	"/>
	<rect x="4" y="26" width="42" height="2"/>
	<rect x="4" y="56" width="42" height="2"/>
	<rect x="8" y="30" width="2" height="2"/>
	<rect x="12" y="30" width="2" height="2"/>
	<rect x="16" y="30" width="2" height="2"/>
	<rect x="20" y="30" width="2" height="2"/>
	<rect x="24" y="30" width="2" height="2"/>
	<rect x="28" y="30" width="2" height="2"/>
	<rect x="32" y="30" width="2" height="2"/>
	<rect x="36" y="30" width="2" height="2"/>
	<rect x="40" y="30" width="2" height="2"/>
	<rect x="8" y="52" width="2" height="2"/>
	<rect x="4" y="30" width="2" height="2"/>
	<rect x="4" y="52" width="2" height="2"/>
	<rect x="12" y="52" width="2" height="2"/>
	<rect x="16" y="52" width="2" height="2"/>
	<rect x="20" y="52" width="2" height="2"/>
	<rect x="24" y="52" width="2" height="2"/>
	<rect x="28" y="52" width="2" height="2"/>
	<rect x="32" y="52" width="2" height="2"/>
	<rect x="36" y="52" width="2" height="2"/>
	<rect x="40" y="52" width="2" height="2"/>
	<rect x="44" y="30" width="2" height="2"/>
	<rect x="44" y="52" width="2" height="2"/>
	<path d="M24,34H4v16h20V34z M22,48H6V36h16V48z"/>
	<path d="M26,50h20V34H26V50z M28,36h16v12H28V36z"/>
</g>
</svg>
