<?xml version="1.0" encoding="utf-8"?>
<!-- Generator: Adobe Illustrator 21.1.0, SVG Export Plug-In . SVG Version: 6.00 Build 0)  -->
<svg version="1.1" id="Layer_1" xmlns="http://www.w3.org/2000/svg" xmlns:xlink="http://www.w3.org/1999/xlink" x="0px" y="0px"
	 viewBox="0 0 62 62" style="enable-background:new 0 0 62 62;" xml:space="preserve">
<g>
	<path d="M59,4h-9V0H12.6L0,12.6V62h50V24h9c1.7,0,3-1.3,3-3V7C62,5.3,60.7,4,59,4z M12,3.4V12H3.4L12,3.4z M48,60H2V14h12V2h34v2
		H23c-1.7,0-3,1.3-3,3v14c0,1.7,1.3,3,3,3h25V60z M60,21c0,0.6-0.4,1-1,1H23c-0.6,0-1-0.4-1-1V7c0-0.6,0.4-1,1-1h36c0.6,0,1,0.4,1,1
		V21z"/>
	<polygon points="38,8 36,8 36,20 46,20 46,18 38,18 	"/>
	<path d="M4,58h42V26H4V58z M6,48h8v8H6V48z M34,46h-2v2h2v8h-8v-8h4v-2h-4v-8h8V46z M36,38h8v8h-8V38z M24,56h-8v-8h8V56z M26,36
		v-8h8v8H26z M24,36h-8v-8h8V36z M24,38v8h-8v-8H24z M14,46H6v-8h8V46z M36,56v-8h8v8H36z M44,36h-8v-8h8V36z M14,28v8H6v-8H14z"/>
	<rect x="4" y="16" width="2" height="2"/>
	<rect x="8" y="16" width="2" height="2"/>
	<rect x="4" y="20" width="2" height="2"/>
	<rect x="40" y="52" width="2" height="2"/>
	<polygon points="32,8.6 29,12.4 26,8.6 26,8 24,8 24,9.4 27.7,14 24,18.6 24,20 26,20 26,19.4 29,15.6 32,19.4 32,20 34,20 
		34,18.6 30.3,14 34,9.4 34,8 32,8 	"/>
	<path d="M54.5,8h-3C49.6,8,48,9.6,48,11.5s1.6,3.5,3.5,3.5h3c0.8,0,1.5,0.7,1.5,1.5S55.3,18,54.5,18h-3c-0.8,0-1.5-0.7-1.5-1.5V16
		h-2v0.5c0,1.9,1.6,3.5,3.5,3.5h3c1.9,0,3.5-1.6,3.5-3.5S56.4,13,54.5,13h-3c-0.8,0-1.5-0.7-1.5-1.5s0.7-1.5,1.5-1.5h3
		c0.8,0,1.5,0.7,1.5,1.5V12h2v-0.5C58,9.6,56.4,8,54.5,8z"/>
</g>
</svg>
