<?xml version="1.0" encoding="utf-8"?>
<!-- Generator: Adobe Illustrator 21.1.0, SVG Export Plug-In . SVG Version: 6.00 Build 0)  -->
<svg version="1.1" id="Layer_1" xmlns="http://www.w3.org/2000/svg" xmlns:xlink="http://www.w3.org/1999/xlink" x="0px" y="0px"
	 viewBox="0 0 62 62" style="enable-background:new 0 0 62 62;" xml:space="preserve">
<g>
	<path d="M59,4h-9V0H12.6L0,12.6V62h50V24h9c1.7,0,3-1.3,3-3V7C62,5.3,60.7,4,59,4z M12,3.4V12H3.4L12,3.4z M48,60H2V14h12V2h34v2
		H23c-1.7,0-3,1.3-3,3v14c0,1.7,1.3,3,3,3h25V60z M60,21c0,0.6-0.4,1-1,1H23c-0.6,0-1-0.4-1-1V7c0-0.6,0.4-1,1-1h36c0.6,0,1,0.4,1,1
		V21z"/>
	<path d="M39,34v-8H15c-2.2,0-4,1.8-4,4v24c0,2.2,1.8,4,4,4h24v-2h-1c-1.1,0-2-0.9-2-2s0.9-2,2-2h1V40h-2v10H15
		c-0.7,0-1.4,0.2-2,0.6V30c0-1.1,0.9-2,2-2h22v6H39z M15,52h19.5c-0.3,0.6-0.5,1.3-0.5,2s0.2,1.4,0.5,2H15c-1.1,0-2-0.9-2-2
		S13.9,52,15,52z"/>
	<rect x="4" y="16" width="2" height="2"/>
	<rect x="8" y="16" width="2" height="2"/>
	<rect x="4" y="20" width="2" height="2"/>
	<path d="M34,11.5C34,9.6,32.4,8,30.5,8H24v12h2v-5h4v1c0,2.2,1.8,4,4,4v-2c-1.1,0-2-0.9-2-2v-1.4C33.2,14.1,34,12.9,34,11.5z
		 M26,10h4.5c0.8,0,1.5,0.7,1.5,1.5S31.3,13,30.5,13H26V10z"/>
	<path d="M58,11.5C58,9.6,56.4,8,54.5,8H48v12h2v-5h4v1c0,2.2,1.8,4,4,4v-2c-1.1,0-2-0.9-2-2v-1.4C57.2,14.1,58,12.9,58,11.5z
		 M50,10h4.5c0.8,0,1.5,0.7,1.5,1.5S55.3,13,54.5,13H50V10z"/>
	<path d="M41,8c-2.8,0-5,2.2-5,5v7h2v-3h6v3h2v-7C46,10.2,43.8,8,41,8z M38,15v-2c0-1.7,1.3-3,3-3s3,1.3,3,3v2H38z"/>
	<rect x="33" y="36" width="2" height="2"/>
	<rect x="31" y="38" width="2" height="2"/>
	<rect x="29" y="36" width="2" height="2"/>
	<rect x="27" y="38" width="2" height="2"/>
	<rect x="25" y="36" width="2" height="2"/>
	<rect x="23" y="38" width="2" height="2"/>
	<rect x="21" y="36" width="2" height="2"/>
	<rect x="19" y="38" width="2" height="2"/>
	<rect x="17" y="36" width="2" height="2"/>
	<rect x="15" y="38" width="2" height="2"/>
	<rect x="35" y="38" width="2" height="2"/>
	<rect x="37" y="36" width="5" height="2"/>
</g>
</svg>
