<?xml version="1.0" encoding="utf-8"?>
<!-- Generator: Adobe Illustrator 21.1.0, SVG Export Plug-In . SVG Version: 6.00 Build 0)  -->
<svg version="1.1" id="Layer_1" xmlns="http://www.w3.org/2000/svg" xmlns:xlink="http://www.w3.org/1999/xlink" x="0px" y="0px"
	 viewBox="0 0 62 62" style="enable-background:new 0 0 62 62;" xml:space="preserve">
<g>
	<path d="M59,4h-9V0H12.6L0,12.6V62h50V24h9c1.7,0,3-1.3,3-3V7C62,5.3,60.7,4,59,4z M12,3.4V12H3.4L12,3.4z M48,60H2V14h12V2h34v2
		H23c-1.7,0-3,1.3-3,3v14c0,1.7,1.3,3,3,3h25V60z M60,21c0,0.6-0.4,1-1,1H23c-0.6,0-1-0.4-1-1V7c0-0.6,0.4-1,1-1h36c0.6,0,1,0.4,1,1
		V21z"/>
	<rect x="4" y="16" width="2" height="2"/>
	<rect x="8" y="16" width="2" height="2"/>
	<rect x="4" y="20" width="2" height="2"/>
	<polygon points="50,8 48,8 48,20 58,20 58,18 50,18 	"/>
	<polygon points="41,11.3 38.5,8 36,8 36,20 38,20 38,10.7 41,14.7 44,10.7 44,20 46,20 46,8 43.5,8 	"/>
	<path d="M4,58h42V26H4V58z M6,28h38v28H6V28z"/>
	<polygon points="15.9,31.5 14.1,30.5 7.9,42 14.1,53.5 15.9,52.5 10.1,42 	"/>
	<polygon points="34.1,31.5 39.9,42 34.1,52.5 35.9,53.5 42.1,42 35.9,30.5 	"/>
	<path d="M25,31c-6.1,0-11,4.9-11,11s4.9,11,11,11s11-4.9,11-11S31.1,31,25,31z M26,39c0.9,0,1.8-0.1,2.6-0.3
		c0.2,0.7,0.3,1.5,0.4,2.3h-3V39z M26,37v-2.8c0.6,0.6,1.3,1.5,1.8,2.7C27.3,36.9,26.7,36.9,26,37z M24,37c-0.7,0-1.3-0.1-1.8-0.2
		c0.6-1.1,1.2-2,1.8-2.7V37z M24,39v2h-3c0.1-0.8,0.2-1.6,0.4-2.3C22.2,38.8,23.1,38.9,24,39z M19,41h-3c0.1-1.3,0.6-2.6,1.2-3.6
		c0.5,0.3,1.2,0.6,2.2,0.9C19.3,39.1,19.1,40,19,41z M19,43c0.1,1,0.2,1.9,0.4,2.8c-0.9,0.3-1.7,0.6-2.2,0.9
		c-0.7-1.1-1.1-2.3-1.2-3.6C16.1,43,19,43,19,43z M21,43h3v2c-0.9,0-1.8,0.1-2.6,0.3C21.2,44.6,21.1,43.8,21,43z M24,47v2.8
		c-0.6-0.6-1.3-1.5-1.8-2.7C22.7,47.1,23.3,47.1,24,47z M26,47c0.7,0,1.3,0.1,1.8,0.2c-0.6,1.1-1.2,2-1.8,2.7V47z M26,45v-2h3
		c-0.1,0.8-0.2,1.6-0.4,2.3C27.8,45.2,26.9,45.1,26,45z M31,43h3c-0.1,1.3-0.6,2.6-1.2,3.6c-0.5-0.3-1.2-0.6-2.2-0.9
		C30.7,44.9,30.9,44,31,43z M31,41c-0.1-1-0.2-1.9-0.4-2.8c0.9-0.3,1.7-0.6,2.2-0.9c0.7,1.1,1.1,2.3,1.2,3.6C33.9,41,31,41,31,41z
		 M31.5,35.7c-0.4,0.2-0.9,0.4-1.6,0.6c-0.5-1.1-1.1-2-1.7-2.8C29.4,34.1,30.5,34.8,31.5,35.7z M21.8,33.6c-0.6,0.7-1.2,1.7-1.7,2.8
		c-0.7-0.2-1.2-0.4-1.6-0.6C19.5,34.8,20.6,34.1,21.8,33.6z M18.5,48.3c0.4-0.2,0.9-0.4,1.6-0.6c0.5,1.1,1.1,2,1.7,2.8
		C20.6,49.9,19.5,49.2,18.5,48.3z M28.2,50.4c0.6-0.7,1.2-1.7,1.7-2.8c0.7,0.2,1.2,0.4,1.6,0.6C30.5,49.2,29.4,49.9,28.2,50.4z"/>
	<polygon points="32,9.6 29,12.6 26,9.6 26,8 24,8 24,10.4 27.6,14 24,17.6 24,20 26,20 26,18.4 29,15.4 32,18.4 32,20 34,20 
		34,17.6 30.4,14 34,10.4 34,8 32,8 	"/>
</g>
</svg>
