<?xml version="1.0" encoding="utf-8"?>
<!-- Generator: Adobe Illustrator 21.1.0, SVG Export Plug-In . SVG Version: 6.00 Build 0)  -->
<svg version="1.1" id="Layer_1" xmlns="http://www.w3.org/2000/svg" xmlns:xlink="http://www.w3.org/1999/xlink" x="0px" y="0px"
	 viewBox="0 0 62 62" style="enable-background:new 0 0 62 62;" xml:space="preserve">
<g>
	<path d="M59,4h-9V0H12.6L0,12.6V62h50V24h9c1.7,0,3-1.3,3-3V7C62,5.3,60.7,4,59,4z M12,3.4V12H3.4L12,3.4z M48,60H2V14h12V2h34v2
		H23c-1.7,0-3,1.3-3,3v14c0,1.7,1.3,3,3,3h25V60z M60,21c0,0.6-0.4,1-1,1H23c-0.6,0-1-0.4-1-1V7c0-0.6,0.4-1,1-1h36c0.6,0,1,0.4,1,1
		V21z"/>
	<path d="M53,10c1.7,0,3,1.3,3,3h2c0-2.8-2.2-5-5-5s-5,2.2-5,5v2c0,2.8,2.2,5,5,5s5-2.2,5-5h-2c0,1.7-1.3,3-3,3s-3-1.3-3-3v-2
		C50,11.3,51.3,10,53,10z"/>
	<path d="M4,58h42V26H4V58z M6,28h38v28H6V28z"/>
	<rect x="4" y="16" width="2" height="2"/>
	<rect x="8" y="16" width="2" height="2"/>
	<rect x="4" y="20" width="2" height="2"/>
	<path d="M28,8h-4v12h4c3.3,0,6-2.7,6-6S31.3,8,28,8z M28,18h-2v-8h2c2.2,0,4,1.8,4,4S30.2,18,28,18z"/>
	<path d="M41,8c-2.8,0-5,2.2-5,5v2c0,2.8,2.2,5,5,5s5-2.2,5-5v-2C46,10.2,43.8,8,41,8z M44,15c0,1.7-1.3,3-3,3s-3-1.3-3-3v-2
		c0-1.7,1.3-3,3-3s3,1.3,3,3V15z"/>
	<polygon points="11.6,41 14,36.9 16.4,41 18.9,41 20,31.1 18,30.9 17.2,38.4 14,33.1 10.8,38.4 10,30.9 8,31.1 9.1,41 	"/>
	<rect x="22" y="31" width="20" height="2"/>
	<rect x="22" y="35" width="20" height="2"/>
	<rect x="22" y="39" width="20" height="2"/>
	<rect x="8" y="43" width="34" height="2"/>
	<rect x="8" y="47" width="34" height="2"/>
	<rect x="8" y="51" width="26" height="2"/>
	<rect x="40" y="51" width="2" height="2"/>
	<rect x="36" y="51" width="2" height="2"/>
</g>
</svg>
