<?xml version="1.0" encoding="utf-8"?>
<!-- Generator: Adobe Illustrator 21.1.0, SVG Export Plug-In . SVG Version: 6.00 Build 0)  -->
<svg version="1.1" id="Layer_1" xmlns="http://www.w3.org/2000/svg" xmlns:xlink="http://www.w3.org/1999/xlink" x="0px" y="0px"
	 viewBox="0 0 62 62" style="enable-background:new 0 0 62 62;" xml:space="preserve">
<g>
	<path d="M59,4h-9V0H12.6L0,12.6V62h50V24h9c1.7,0,3-1.3,3-3V7C62,5.3,60.7,4,59,4z M12,3.4V12H3.4L12,3.4z M48,60H2V14h12V2h34v2
		H23c-1.7,0-3,1.3-3,3v14c0,1.7,1.3,3,3,3h25V60z M60,21c0,0.6-0.4,1-1,1H23c-0.6,0-1-0.4-1-1V7c0-0.6,0.4-1,1-1h36c0.6,0,1,0.4,1,1
		V21z"/>
	<path d="M29,10c1.7,0,3,1.3,3,3h2c0-2.8-2.2-5-5-5s-5,2.2-5,5v2c0,2.8,2.2,5,5,5c1.1,0,2.2-0.4,3-1v1h2v-5h-2h-2v2h1.2
		c-0.5,0.6-1.3,1-2.2,1c-1.7,0-3-1.3-3-3v-2C26,11.3,27.3,10,29,10z"/>
	<polygon points="48,14 48,15 48,20 50,20 50,15 56,15 56,13 50,13 50,10 58,10 58,8 48,8 	"/>
	<rect x="4" y="16" width="2" height="2"/>
	<rect x="8" y="16" width="2" height="2"/>
	<rect x="4" y="20" width="2" height="2"/>
	<polygon points="36,10 40,10 40,18 36,18 36,20 46,20 46,18 42,18 42,10 46,10 46,8 36,8 	"/>
	<path d="M9,42c0,8.8,7.2,16,16,16s16-7.2,16-16s-7.2-16-16-16S9,33.2,9,42z M25,28c7.7,0,14,6.3,14,14s-6.3,14-14,14s-14-6.3-14-14
		S17.3,28,25,28z"/>
	<path d="M25,54c6.6,0,12-5.4,12-12h-2c0,5.5-4.5,10-10,10s-10-4.5-10-10h-2C13,48.6,18.4,54,25,54z"/>
	<path d="M19,40c1.7,0,3-1.3,3-3s-1.3-3-3-3s-3,1.3-3,3S17.3,40,19,40z M19,36c0.6,0,1,0.4,1,1s-0.4,1-1,1s-1-0.4-1-1S18.4,36,19,36
		z"/>
	<path d="M31,40c1.7,0,3-1.3,3-3s-1.3-3-3-3s-3,1.3-3,3S29.3,40,31,40z M31,36c0.6,0,1,0.4,1,1s-0.4,1-1,1s-1-0.4-1-1S30.4,36,31,36
		z"/>
</g>
</svg>
