<?xml version="1.0" encoding="utf-8"?>
<!-- Generator: Adobe Illustrator 21.1.0, SVG Export Plug-In . SVG Version: 6.00 Build 0)  -->
<svg version="1.1" id="Layer_1" xmlns="http://www.w3.org/2000/svg" xmlns:xlink="http://www.w3.org/1999/xlink" x="0px" y="0px"
	 viewBox="0 0 62 62" style="enable-background:new 0 0 62 62;" xml:space="preserve">
<g>
	<path d="M59,4h-9V0H12.6L0,12.6V62h50V24h9c1.7,0,3-1.3,3-3V7C62,5.3,60.7,4,59,4z M12,3.4V12H3.4L12,3.4z M48,60H2V14h12V2h34v2
		H23c-1.7,0-3,1.3-3,3v14c0,1.7,1.3,3,3,3h25V60z M60,21c0,0.6-0.4,1-1,1H23c-0.6,0-1-0.4-1-1V7c0-0.6,0.4-1,1-1h36c0.6,0,1,0.4,1,1
		V21z"/>
	<path d="M42.5,8H36v6v1v5h2v-5h4.5c1.9,0,3.5-1.6,3.5-3.5S44.4,8,42.5,8z M42.5,13H38v-3h4.5c0.8,0,1.5,0.7,1.5,1.5
		S43.3,13,42.5,13z"/>
	<path d="M53,10c1.7,0,3,1.3,3,3h2c0-2.8-2.2-5-5-5s-5,2.2-5,5v2c0,2.8,2.2,5,5,5c1.1,0,2.2-0.4,3-1v1h2v-5h-2h-2v2h1.2
		c-0.5,0.6-1.3,1-2.2,1c-1.7,0-3-1.3-3-3v-2C50,11.3,51.3,10,53,10z"/>
	<path d="M32,15c0,1.7-1.3,3-3,3s-3-1.3-3-3h-2c0,2.8,2.2,5,5,5s5-2.2,5-5V8h-2V15z"/>
	<path d="M4,58h42V26H4V58z M6,28h38v28H6V28z"/>
	<path d="M35.3,44.6c0.5-1.2,0.7-2.4,0.7-3.6c0-5.5-4.5-10-10-10s-10,4.5-10,10c0,1.2,0.2,2.3,0.6,3.4l-7,7.6H8v2h25v-2H12.3
		L22,41.4l6.3,6.3l1.4-1.4L28.4,45l2.5-2.5l7.9,9.5H35v2h7v-2h-0.5L35.3,44.6z M27,43.6l-5-5l-3.8,4.1C18.1,42.1,18,41.6,18,41
		c0-4.4,3.6-8,8-8s8,3.6,8,8c0,0.6-0.1,1.2-0.2,1.8l-2.7-3.3L27,43.6z"/>
	<rect x="4" y="16" width="2" height="2"/>
	<rect x="8" y="16" width="2" height="2"/>
	<rect x="4" y="20" width="2" height="2"/>
</g>
</svg>
