<?xml version="1.0" encoding="utf-8"?>
<!-- Generator: Adobe Illustrator 21.1.0, SVG Export Plug-In . SVG Version: 6.00 Build 0)  -->
<svg version="1.1" id="Layer_1" xmlns="http://www.w3.org/2000/svg" xmlns:xlink="http://www.w3.org/1999/xlink" x="0px" y="0px"
	 viewBox="0 0 62 62" style="enable-background:new 0 0 62 62;" xml:space="preserve">
<g>
	<path d="M59,4h-9V0H12.6L0,12.6V62h50V24h9c1.7,0,3-1.3,3-3V7C62,5.3,60.7,4,59,4z M12,3.4V12H3.4L12,3.4z M48,60H2V14h12V2h34v2
		H23c-1.7,0-3,1.3-3,3v14c0,1.7,1.3,3,3,3h25V60z M60,21c0,0.6-0.4,1-1,1H23c-0.6,0-1-0.4-1-1V7c0-0.6,0.4-1,1-1h36c0.6,0,1,0.4,1,1
		V21z"/>
	<path d="M42.5,8H36v6v1v5h2v-5h4.5c1.9,0,3.5-1.6,3.5-3.5S44.4,8,42.5,8z M42.5,13H38v-3h4.5c0.8,0,1.5,0.7,1.5,1.5
		S43.3,13,42.5,13z"/>
	<rect x="4" y="16" width="2" height="2"/>
	<rect x="8" y="16" width="2" height="2"/>
	<rect x="4" y="20" width="2" height="2"/>
	<polygon points="29,11.3 26.5,8 24,8 24,20 26,20 26,10.7 29,14.7 32,10.7 32,20 34,20 34,8 31.5,8 	"/>
	<path d="M54.5,8h-3C49.6,8,48,9.6,48,11.5V12h2v-0.5c0-0.8,0.7-1.5,1.5-1.5h3c0.8,0,1.5,0.7,1.5,1.5S55.3,13,54.5,13H52v2h2.5
		c0.8,0,1.5,0.7,1.5,1.5S55.3,18,54.5,18h-3c-0.8,0-1.5-0.7-1.5-1.5V16h-2v0.5c0,1.9,1.6,3.5,3.5,3.5h3c1.9,0,3.5-1.6,3.5-3.5
		c0-1-0.4-1.9-1.1-2.5c0.7-0.6,1.1-1.5,1.1-2.5C58,9.6,56.4,8,54.5,8z"/>
	<path d="M15,50.8c-0.8-0.5-1.9-0.8-3-0.8c-2.8,0-5,1.8-5,4s2.2,4,5,4s5-1.8,5-4V42.7l16-5.3v7.4c-0.8-0.5-1.9-0.8-3-0.8
		c-2.8,0-5,1.8-5,4s2.2,4,5,4s5-1.8,5-4V25.6l-20,6.7V50.8z M12,56c-1.6,0-3-0.9-3-2s1.4-2,3-2s3,0.9,3,2S13.6,56,12,56z M30,50
		c-1.6,0-3-0.9-3-2s1.4-2,3-2s3,0.9,3,2S31.6,50,30,50z M33,28.4v6.9l-16,5.3v-6.9L33,28.4z"/>
</g>
</svg>
