<?xml version="1.0" encoding="utf-8"?>
<!-- Generator: Adobe Illustrator 21.1.0, SVG Export Plug-In . SVG Version: 6.00 Build 0)  -->
<svg version="1.1" id="Layer_1" xmlns="http://www.w3.org/2000/svg" xmlns:xlink="http://www.w3.org/1999/xlink" x="0px" y="0px"
	 viewBox="0 0 62 62" style="enable-background:new 0 0 62 62;" xml:space="preserve">
<g>
	<path d="M59,4h-9V0H12.6L0,12.6V62h50V24h9c1.7,0,3-1.3,3-3V7C62,5.3,60.7,4,59,4z M12,3.4V12H3.4L12,3.4z M48,60H2V14h12V2h34v2
		H23c-1.7,0-3,1.3-3,3v14c0,1.7,1.3,3,3,3h25V60z M60,21c0,0.6-0.4,1-1,1H23c-0.6,0-1-0.4-1-1V7c0-0.6,0.4-1,1-1h36c0.6,0,1,0.4,1,1
		V21z"/>
	<path d="M30.5,8H24v6v1v5h2v-5h4.5c1.9,0,3.5-1.6,3.5-3.5S32.4,8,30.5,8z M30.5,13H26v-3h4.5c0.8,0,1.5,0.7,1.5,1.5
		S31.3,13,30.5,13z"/>
	<rect x="4" y="16" width="2" height="2"/>
	<rect x="8" y="16" width="2" height="2"/>
	<rect x="4" y="20" width="2" height="2"/>
	<path d="M40,8h-4v12h4c3.3,0,6-2.7,6-6S43.3,8,40,8z M40,18h-2v-8h2c2.2,0,4,1.8,4,4S42.2,18,40,18z"/>
	<polygon points="48,20 50,20 50,15 56,15 56,13 50,13 50,10 58,10 58,8 48,8 	"/>
	<path d="M20,30.9v0.9c0,1,0.3,1.9,0.8,2.7l3,4.5l-6,9h-6.9C8.2,48,6,50.2,6,52.9v0.2c0,2.7,2.2,4.9,4.9,4.9c1.6,0,3.2-0.8,4.1-2.2
		l3.9-5.8h12.3l3.9,5.8c0.9,1.4,2.4,2.2,4.1,2.2c2.7,0,4.9-2.2,4.9-4.9v-0.2c0-2.7-2.2-4.9-4.9-4.9h-6.9l-6-9l3-4.5
		c0.5-0.8,0.8-1.8,0.8-2.7v-0.9c0-2.7-2.2-4.9-4.9-4.9h-0.2C22.2,26,20,28.2,20,30.9z M13.3,54.7c-0.5,0.8-1.4,1.3-2.4,1.3
		C9.3,56,8,54.7,8,53.1v-0.2c0-1.6,1.3-2.9,2.9-2.9h5.6L13.3,54.7z M39.1,50c1.6,0,2.9,1.3,2.9,2.9v0.2c0,1.6-1.3,2.9-2.9,2.9
		c-1,0-1.9-0.5-2.4-1.3L33.5,50H39.1z M29.8,48h-9.6l4.8-7.2L29.8,48z M22,30.9c0-1.6,1.3-2.9,2.9-2.9h0.2c1.6,0,2.9,1.3,2.9,2.9
		v0.9c0,0.6-0.2,1.1-0.5,1.6L25,37.2l-2.5-3.8c-0.3-0.5-0.5-1-0.5-1.6V30.9z"/>
	<rect x="24" y="52" width="2" height="2"/>
	<rect x="28" y="52" width="2" height="2"/>
	<rect x="20" y="52" width="2" height="2"/>
</g>
</svg>
