<?xml version="1.0" encoding="utf-8"?>
<!-- Generator: Adobe Illustrator 21.1.0, SVG Export Plug-In . SVG Version: 6.00 Build 0)  -->
<svg version="1.1" id="Layer_1" xmlns="http://www.w3.org/2000/svg" xmlns:xlink="http://www.w3.org/1999/xlink" x="0px" y="0px"
	 viewBox="0 0 62 62" style="enable-background:new 0 0 62 62;" xml:space="preserve">
<g>
	<path d="M59,4h-9V0H12.6L0,12.6V62h50V24h9c1.7,0,3-1.3,3-3V7C62,5.3,60.7,4,59,4z M12,3.4V12H3.4L12,3.4z M48,60H2V14h12V2h34v2
		H23c-1.7,0-3,1.3-3,3v14c0,1.7,1.3,3,3,3h25V60z M60,21c0,0.6-0.4,1-1,1H23c-0.6,0-1-0.4-1-1V7c0-0.6,0.4-1,1-1h36c0.6,0,1,0.4,1,1
		V21z"/>
	<rect x="4" y="16" width="2" height="2"/>
	<rect x="8" y="16" width="2" height="2"/>
	<rect x="4" y="20" width="2" height="2"/>
	<path d="M30.5,8h-3C25.6,8,24,9.6,24,11.5s1.6,3.5,3.5,3.5h3c0.8,0,1.5,0.7,1.5,1.5S31.3,18,30.5,18h-3c-0.8,0-1.5-0.7-1.5-1.5V16
		h-2v0.5c0,1.9,1.6,3.5,3.5,3.5h3c1.9,0,3.5-1.6,3.5-3.5S32.4,13,30.5,13h-3c-0.8,0-1.5-0.7-1.5-1.5s0.7-1.5,1.5-1.5h3
		c0.8,0,1.5,0.7,1.5,1.5V12h2v-0.5C34,9.6,32.4,8,30.5,8z"/>
	<path d="M53,10c1.7,0,3,1.3,3,3h2c0-2.8-2.2-5-5-5s-5,2.2-5,5v2c0,2.8,2.2,5,5,5c1.1,0,2.2-0.4,3-1v1h2v-5h-2h-2v2h1.2
		c-0.5,0.6-1.3,1-2.2,1c-1.7,0-3-1.3-3-3v-2C50,11.3,51.3,10,53,10z"/>
	<polygon points="44,11.8 41.3,18 40.7,18 38,11.8 38,8 36,8 36,12.2 39.3,20 42.7,20 46,12.2 46,8 44,8 	"/>
	<path d="M22,42c0,1.1,0.6,2.1,1.5,2.6C22.5,47.8,19.4,50,16,50c-4.1,0-7.6-3.2-8-7.2c1.1-0.4,2-1.5,2-2.8c0-1.7-1.3-3-3-3
		s-3,1.3-3,3c0,1.3,0.9,2.4,2,2.8C6.5,48,10.8,52,16,52c4.4,0,8.3-2.9,9.5-7.1c1.4-0.3,2.5-1.5,2.5-2.9c0-1.1-0.6-2.1-1.5-2.6
		c1.1-3.2,4.1-5.4,7.5-5.4c4.1,0,7.6,3.2,8,7.2c-1.1,0.4-2,1.5-2,2.8c0,1.7,1.3,3,3,3s3-1.3,3-3c0-1.3-0.9-2.4-2-2.8
		C43.5,36,39.2,32,34,32c-4.4,0-8.3,2.9-9.5,7.1C23.1,39.3,22,40.5,22,42z M7,39c0.6,0,1,0.4,1,1s-0.4,1-1,1s-1-0.4-1-1S6.4,39,7,39
		z M43,45c-0.6,0-1-0.4-1-1s0.4-1,1-1s1,0.4,1,1S43.6,45,43,45z M25,43c-0.6,0-1-0.4-1-1s0.4-1,1-1s1,0.4,1,1S25.6,43,25,43z"/>
</g>
</svg>
