<?xml version="1.0" encoding="utf-8"?>
<!-- Generator: Adobe Illustrator 21.1.0, SVG Export Plug-In . SVG Version: 6.00 Build 0)  -->
<svg version="1.1" id="Layer_1" xmlns="http://www.w3.org/2000/svg" xmlns:xlink="http://www.w3.org/1999/xlink" x="0px" y="0px"
	 viewBox="0 0 62 62" style="enable-background:new 0 0 62 62;" xml:space="preserve">
<g>
	<path d="M59,4h-9V0H12.6L0,12.6V62h50V24h9c1.7,0,3-1.3,3-3V7C62,5.3,60.7,4,59,4z M12,3.4V12H3.4L12,3.4z M48,60H2V14h12V2h34v2
		H23c-1.7,0-3,1.3-3,3v14c0,1.7,1.3,3,3,3h25V60z M60,21c0,0.6-0.4,1-1,1H23c-0.6,0-1-0.4-1-1V7c0-0.6,0.4-1,1-1h36c0.6,0,1,0.4,1,1
		V21z"/>
	<path d="M53,10c1.7,0,3,1.3,3,3h2c0-2.8-2.2-5-5-5s-5,2.2-5,5v2c0,2.8,2.2,5,5,5c1.1,0,2.2-0.4,3-1v1h2v-5h-2h-2v2h1.2
		c-0.5,0.6-1.3,1-2.2,1c-1.7,0-3-1.3-3-3v-2C50,11.3,51.3,10,53,10z"/>
	<polygon points="44,17.1 38.6,8 36,8 36,20 38,20 38,10.9 43.4,20 46,20 46,8 44,8 	"/>
	<path d="M30.5,8H24v6v1v5h2v-5h4.5c1.9,0,3.5-1.6,3.5-3.5S32.4,8,30.5,8z M30.5,13H26v-3h4.5c0.8,0,1.5,0.7,1.5,1.5
		S31.3,13,30.5,13z"/>
	<rect x="4" y="16" width="2" height="2"/>
	<rect x="8" y="16" width="2" height="2"/>
	<rect x="4" y="20" width="2" height="2"/>
	<rect x="42" y="28" width="2" height="2"/>
	<rect x="38" y="28" width="2" height="2"/>
	<rect x="34" y="28" width="2" height="2"/>
	<rect x="30" y="28" width="2" height="2"/>
	<rect x="26" y="28" width="2" height="2"/>
	<rect x="22" y="28" width="2" height="2"/>
	<rect x="18" y="28" width="2" height="2"/>
	<rect x="14" y="28" width="2" height="2"/>
	<rect x="10" y="28" width="2" height="2"/>
	<rect x="6" y="28" width="2" height="2"/>
	<rect x="40" y="30" width="2" height="2"/>
	<rect x="36" y="30" width="2" height="2"/>
	<rect x="32" y="30" width="2" height="2"/>
	<rect x="28" y="30" width="2" height="2"/>
	<rect x="24" y="30" width="2" height="2"/>
	<rect x="20" y="30" width="2" height="2"/>
	<rect x="16" y="30" width="2" height="2"/>
	<rect x="12" y="30" width="2" height="2"/>
	<rect x="8" y="30" width="2" height="2"/>
	<rect x="42" y="32" width="2" height="2"/>
	<rect x="38" y="32" width="2" height="2"/>
	<rect x="34" y="32" width="2" height="2"/>
	<rect x="30" y="32" width="2" height="2"/>
	<rect x="26" y="32" width="2" height="2"/>
	<rect x="22" y="32" width="2" height="2"/>
	<rect x="18" y="32" width="2" height="2"/>
	<rect x="14" y="32" width="2" height="2"/>
	<rect x="10" y="32" width="2" height="2"/>
	<rect x="6" y="32" width="2" height="2"/>
	<rect x="40" y="34" width="2" height="2"/>
	<rect x="36" y="34" width="2" height="2"/>
	<rect x="32" y="34" width="2" height="2"/>
	<rect x="28" y="34" width="2" height="2"/>
	<rect x="24" y="34" width="2" height="2"/>
	<rect x="20" y="34" width="2" height="2"/>
	<rect x="16" y="34" width="2" height="2"/>
	<rect x="12" y="34" width="2" height="2"/>
	<rect x="8" y="34" width="2" height="2"/>
	<rect x="42" y="36" width="2" height="2"/>
	<rect x="38" y="36" width="2" height="2"/>
	<rect x="34" y="36" width="2" height="2"/>
	<rect x="30" y="36" width="2" height="2"/>
	<rect x="26" y="36" width="2" height="2"/>
	<rect x="22" y="36" width="2" height="2"/>
	<rect x="18" y="36" width="2" height="2"/>
	<rect x="14" y="36" width="2" height="2"/>
	<rect x="10" y="36" width="2" height="2"/>
	<rect x="6" y="36" width="2" height="2"/>
	<rect x="40" y="38" width="2" height="2"/>
	<rect x="36" y="38" width="2" height="2"/>
	<rect x="32" y="38" width="2" height="2"/>
	<rect x="28" y="38" width="2" height="2"/>
	<rect x="24" y="38" width="2" height="2"/>
	<rect x="20" y="38" width="2" height="2"/>
	<rect x="16" y="38" width="2" height="2"/>
	<rect x="12" y="38" width="2" height="2"/>
	<rect x="8" y="38" width="2" height="2"/>
	<rect x="42" y="40" width="2" height="2"/>
	<rect x="38" y="40" width="2" height="2"/>
	<rect x="34" y="40" width="2" height="2"/>
	<rect x="30" y="40" width="2" height="2"/>
	<rect x="26" y="40" width="2" height="2"/>
	<rect x="22" y="40" width="2" height="2"/>
	<rect x="18" y="40" width="2" height="2"/>
	<rect x="14" y="40" width="2" height="2"/>
	<rect x="10" y="40" width="2" height="2"/>
	<rect x="6" y="40" width="2" height="2"/>
	<rect x="40" y="42" width="2" height="2"/>
	<rect x="36" y="42" width="2" height="2"/>
	<rect x="32" y="42" width="2" height="2"/>
	<rect x="28" y="42" width="2" height="2"/>
	<rect x="24" y="42" width="2" height="2"/>
	<rect x="20" y="42" width="2" height="2"/>
	<rect x="16" y="42" width="2" height="2"/>
	<rect x="12" y="42" width="2" height="2"/>
	<rect x="8" y="42" width="2" height="2"/>
	<rect x="42" y="44" width="2" height="2"/>
	<rect x="38" y="44" width="2" height="2"/>
	<rect x="34" y="44" width="2" height="2"/>
	<rect x="30" y="44" width="2" height="2"/>
	<rect x="26" y="44" width="2" height="2"/>
	<rect x="22" y="44" width="2" height="2"/>
	<rect x="18" y="44" width="2" height="2"/>
	<rect x="14" y="44" width="2" height="2"/>
	<rect x="10" y="44" width="2" height="2"/>
	<rect x="6" y="44" width="2" height="2"/>
	<rect x="40" y="46" width="2" height="2"/>
	<rect x="36" y="46" width="2" height="2"/>
	<rect x="32" y="46" width="2" height="2"/>
	<rect x="28" y="46" width="2" height="2"/>
	<rect x="24" y="46" width="2" height="2"/>
	<rect x="20" y="46" width="2" height="2"/>
	<rect x="16" y="46" width="2" height="2"/>
	<rect x="12" y="46" width="2" height="2"/>
	<rect x="8" y="46" width="2" height="2"/>
	<rect x="42" y="48" width="2" height="2"/>
	<rect x="38" y="48" width="2" height="2"/>
	<rect x="34" y="48" width="2" height="2"/>
	<rect x="30" y="48" width="2" height="2"/>
	<rect x="26" y="48" width="2" height="2"/>
	<rect x="22" y="48" width="2" height="2"/>
	<rect x="18" y="48" width="2" height="2"/>
	<rect x="14" y="48" width="2" height="2"/>
	<rect x="10" y="48" width="2" height="2"/>
	<rect x="6" y="48" width="2" height="2"/>
	<rect x="40" y="50" width="2" height="2"/>
	<rect x="36" y="50" width="2" height="2"/>
	<rect x="32" y="50" width="2" height="2"/>
	<rect x="28" y="50" width="2" height="2"/>
	<rect x="24" y="50" width="2" height="2"/>
	<rect x="20" y="50" width="2" height="2"/>
	<rect x="16" y="50" width="2" height="2"/>
	<rect x="12" y="50" width="2" height="2"/>
	<rect x="8" y="50" width="2" height="2"/>
	<rect x="42" y="52" width="2" height="2"/>
	<rect x="38" y="52" width="2" height="2"/>
	<rect x="34" y="52" width="2" height="2"/>
	<rect x="30" y="52" width="2" height="2"/>
	<rect x="26" y="52" width="2" height="2"/>
	<rect x="22" y="52" width="2" height="2"/>
	<rect x="18" y="52" width="2" height="2"/>
	<rect x="14" y="52" width="2" height="2"/>
	<rect x="10" y="52" width="2" height="2"/>
	<rect x="6" y="52" width="2" height="2"/>
	<rect x="40" y="54" width="2" height="2"/>
	<rect x="36" y="54" width="2" height="2"/>
	<rect x="32" y="54" width="2" height="2"/>
	<rect x="28" y="54" width="2" height="2"/>
	<rect x="24" y="54" width="2" height="2"/>
	<rect x="20" y="54" width="2" height="2"/>
	<rect x="16" y="54" width="2" height="2"/>
	<rect x="12" y="54" width="2" height="2"/>
	<rect x="8" y="54" width="2" height="2"/>
</g>
</svg>
