<?xml version="1.0" encoding="utf-8"?>
<!-- Generator: Adobe Illustrator 23.0.4, SVG Export Plug-In . SVG Version: 6.00 Build 0)  -->
<svg version="1.1" id="Layer_1" xmlns="http://www.w3.org/2000/svg" xmlns:xlink="http://www.w3.org/1999/xlink" x="0px" y="0px"
	 viewBox="0 0 78.4 60.7" style="enable-background:new 0 0 78.4 60.7;" xml:space="preserve">
<path d="M75.8,27.8L48.1,0l-2.8,2.8L73,30.6c2,1.9,2,5.1,0,7.1c0,0,0,0,0,0L55.4,55.3c-1.9,2-5.1,2-7.1,0c0,0,0,0,0,0l-3-3
	l11.8-11.8c3.5-3.5,3.5-9.2,0-12.7L32.6,3.3C31.1,1.8,29,1,26.8,1L8.2,1.3C3.9,1.4,0.5,4.8,0.4,9.1L0,27.7c0,2.2,0.8,4.3,2.3,5.8
	l24.5,24.6c3.5,3.5,9.2,3.5,12.7,0l3-3l3,3c3.5,3.5,9.2,3.5,12.7,0l17.6-17.6C79.3,37,79.3,31.3,75.8,27.8z M36.7,55.3
	c-1.9,2-5.1,2-7.1,0c0,0,0,0,0,0L5.1,30.8C4.3,30,3.9,29,3.9,27.9L4.3,9.3c0.1-2.1,1.8-3.8,3.9-3.9L26.8,5h0.1C28,5,29,5.4,29.7,6.2
	l24.6,24.4c2,1.9,2,5.1,0,7.1c0,0,0,0,0,0L42.5,49.5l0,0l-2.8,2.8l0,0L36.7,55.3z M19.3,17.4c-0.9-0.7-2.1-0.5-2.8,0.4
	c-0.5,0.7-0.5,1.7,0,2.4l2.3,2.3c0.9,0.7,2.1,0.5,2.8-0.4c0.5-0.7,0.5-1.7,0-2.4L19.3,17.4z"/>
</svg>
