<?xml version="1.0" encoding="utf-8"?>
<!-- Generator: Adobe Illustrator 24.0.1, SVG Export Plug-In . SVG Version: 6.00 Build 0)  -->
<svg version="1.1"
	 id="Layer_1" xmlns:cc="http://creativecommons.org/ns#" xmlns:dc="http://purl.org/dc/elements/1.1/" xmlns:inkscape="http://www.inkscape.org/namespaces/inkscape" xmlns:rdf="http://www.w3.org/1999/02/22-rdf-syntax-ns#" xmlns:sodipodi="http://sodipodi.sourceforge.net/DTD/sodipodi-0.dtd" xmlns:svg="http://www.w3.org/2000/svg"
	 xmlns="http://www.w3.org/2000/svg" xmlns:xlink="http://www.w3.org/1999/xlink" x="0px" y="0px" viewBox="0 0 68 88.2"
	 style="enable-background:new 0 0 68 88.2;" xml:space="preserve">
<path d="M26.7,0C24,0,22,2.4,22,5v1h24V5c0-2.6-2-5-4.7-5H26.7z M2.8,8C1.3,8,0,9.3,0,10.8v10.3C0,22.7,1.3,24,2.8,24h62.4
	c1.5,0,2.8-1.3,2.8-2.8V10.8C68,9.3,66.7,8,65.2,8H51h-5H22h-4H2.8z M5.3,26l4.5,56.3c0,0.1,0,0.1,0,0.2c0.3,1.9,0.9,3.4,2.1,4.4
	s2.6,1.3,3.8,1.3h36.6c1.2,0,2.6-0.3,3.8-1.3s1.8-2.5,2.1-4.4c0-0.1,0-0.1,0-0.2L62.7,26H5.3z M47.9,29.9c1.1-0.1,2,0.8,2.1,1.9
	c0,0.1,0,0.2,0,0.3l-3,42c-0.1,1.1-1,1.9-2.1,1.9c-1.1-0.1-1.9-1-1.9-2.1l3-42c0.1-1,0.8-1.7,1.7-1.9C47.8,30,47.8,29.9,47.9,29.9z
	 M19.7,30c0,0,0.1,0,0.1,0c1.1-0.1,2.1,0.7,2.2,1.8c0,0,0,0,0,0.1l3,42c0.1,1.1-0.8,2.1-1.9,2.1c-1.1,0.1-2.1-0.8-2.1-1.9l-3-42
	C17.9,31.1,18.6,30.1,19.7,30z M33.8,31c1.1-0.1,2.1,0.7,2.2,1.8c0,0.1,0,0.2,0,0.3v42c0,1.1-0.9,2-2,2c-1.1,0-2-0.9-2-2
	c0,0,0,0,0-0.1V33C32,32,32.8,31.1,33.8,31z"/>
</svg>
