<?xml version="1.0" encoding="utf-8"?>
<!-- Generator: Adobe Illustrator 23.0.4, SVG Export Plug-In . SVG Version: 6.00 Build 0)  -->
<svg version="1.1"
	 id="Layer_1" xmlns:cc="http://creativecommons.org/ns#" xmlns:dc="http://purl.org/dc/elements/1.1/" xmlns:rdf="http://www.w3.org/1999/02/22-rdf-syntax-ns#"
	 xmlns="http://www.w3.org/2000/svg" xmlns:xlink="http://www.w3.org/1999/xlink" x="0px" y="0px" viewBox="0 0 71.4 48.7"
	 style="enable-background:new 0 0 71.4 48.7;" xml:space="preserve">
<path d="M40.1,0C35.4,0,31,2,27.8,5.6c-0.4,0.4-0.9,0.6-1.4,0.5L25.9,6c-0.4,0-0.7-0.1-1.1-0.1c-5.3,0-10,3-12.3,7.8
	c-0.3,0.6-1,1-1.7,0.9c-0.5-0.1-0.9-0.1-1.3-0.1c-5.2,0-9.5,4.2-9.5,9.5c0,5.4,4.4,10.2,9.5,10.2h10.1c0.8-8.2,7.7-14.6,16.1-14.6
	c8.4,0,15.3,6.4,16.1,14.6h10.1c5,0,9.5-4.8,9.5-10.2c0-5.2-4.2-9.5-9.5-9.5c-1.1,0-2.2,0.2-3.3,0.6c-0.5,0.2-1,0.1-1.4-0.1
	c-0.4-0.2-0.7-0.7-0.8-1.1C55.1,5.8,48.2,0,40.1,0L40.1,0z M35.7,22.7c-7.2,0-13,5.8-13,13c0,7.2,5.8,13,13,13c7.2,0,13-5.8,13-13
	C48.7,28.5,42.9,22.7,35.7,22.7z M35.7,27.6c0.4,0,0.8,0.2,1.1,0.5l4.9,4.9c0.6,0.6,0.6,1.7,0,2.3c-0.3,0.3-0.7,0.5-1.1,0.5
	c-0.4,0-0.8-0.2-1.1-0.5l-2.1-2.1v9.1c0,0.9-0.7,1.6-1.6,1.6c-0.9,0-1.6-0.7-1.6-1.6v-9.1L32,35.2c-0.6,0.6-1.7,0.6-2.3,0
	c-0.6-0.6-0.6-1.7,0-2.3l4.9-4.9C34.9,27.7,35.3,27.6,35.7,27.6z"/>
</svg>
